<?xml version="1.0" encoding="utf-8"?>
<!-- Svg Vector Icons : http://www.sfont.cn -->
<!DOCTYPE svg PUBLIC "-//W3C//DTD SVG 1.1//EN" "http://www.w3.org/Graphics/SVG/1.1/DTD/svg11.dtd">
<svg version="1.1" xmlns="http://www.w3.org/2000/svg" xmlns:xlink="http://www.w3.org/1999/xlink" x="0px" y="0px" viewBox="0 0 1000 1000" enable-background="new 0 0 1000 1000" xml:space="preserve">
<metadata> Svg Vector Icons : http://www.sfont.cn </metadata>
<g fill="#000"><g><g><circle cx="500" cy="500" r="51.1"/><path d="M500,10C229.4,10,10,229.4,10,500c0,270.6,219.4,490,490,490s490-219.4,490-490C990,229.4,770.6,10,500,10z M149.5,397.2c-4,10.3-13.8,16.7-24.2,16.7c-3.1,0-6.2-0.5-9.3-1.7C102.7,407,96,392,101.1,378.6c3.3-8.7,84-213.3,304.5-269.9c13.9-3.5,28,4.8,31.6,18.7c3.6,13.9-4.8,28-18.7,31.6C223.6,209,150.3,395.3,149.5,397.2z M273.5,416.3c-4,10.3-13.8,16.6-24.2,16.6c-3.1,0-6.2-0.6-9.3-1.7c-13.3-5.2-20-20.1-14.9-33.4c2.1-5.5,52.9-134.4,191.8-170.1c13.9-3.5,28,4.8,31.6,18.7c3.6,13.9-4.8,28-18.7,31.6C317.4,306.7,273.9,415.2,273.5,416.3z M353,500c0-81.2,65.8-147,147-147c81.2,0,147,65.8,147,147c0,81.2-65.8,147-147,147C418.8,647,353,581.2,353,500z M552,764.1c-3.6-13.9,4.8-28,18.7-31.6C683.1,703.7,726.6,595.2,727,594.1c5.2-13.3,20.2-20,33.5-14.8c13.3,5.1,20,20.1,14.9,33.5c-2.1,5.5-52.9,134.4-191.8,170.1c-2.2,0.6-4.3,0.8-6.5,0.8C565.6,783.6,555,775.9,552,764.1z M594.9,901.7c-2.2,0.6-4.4,0.8-6.5,0.8c-11.5,0-22.1-7.8-25.1-19.5c-3.6-13.9,4.8-28,18.7-31.6C776,801.6,850.3,615,851,613.2c5.1-13.3,20.2-20,33.5-14.9c13.3,5.1,20,20.1,14.9,33.5C896.1,640.5,815.4,845.1,594.9,901.7z"/></g></g><g></g><g></g><g></g><g></g><g></g><g></g><g></g><g></g><g></g><g></g><g></g><g></g><g></g><g></g><g></g></g>
</svg>